<svg xmlns="http://www.w3.org/2000/svg" width="159" height="100" fill="none" viewBox="0 0 159 100"><g fill="#fff" clip-path="url(#a)"><path d="m34.9 23.94.28.08a24.5 24.5 0 0 1 8.93 4.82l.33.3.62.56.73.62c.48.4.87.87 1.27 1.34l.3.35a28 28 0 0 1 6.52 13.49c.24 1.38.23 2.76.23 4.16v.39c0 1.97-.1 3.85-.54 5.78l-.06.3A26 26 0 0 1 48.29 67l-.17.2a27 27 0 0 1-4.38 4.33l-.2.16c-1.05.8-2.1 1.52-3.24 2.17l-.42.25c-5 2.8-11.66 4.22-17.33 2.97a5 5 0 0 1-3-2.07c-.61-1.26-.48-2.5-.05-3.8a37 37 0 0 1 2.25-5.07l.14-.27c.69-1.3 1.43-2.5 2.32-3.66l.16-.21a34 34 0 0 1 6.01-6.14 28 28 0 0 1 4.03-2.72l.26-.16a3 3 0 0 1 1.7-.4h.26c.7.04 1.14.19 1.7.56l.64.33.3.15c1.15.5 2.88.42 4.05.05a6 6 0 0 0 3.47-3.23c.57-1.4.66-3.12.14-4.56a6.3 6.3 0 0 0-3.3-3.29l-.27-.11a6 6 0 0 0-4.39.17 6 6 0 0 0-3.44 4.26c-.23.68-.5 1.19-1.12 1.57l-1.11.36a43 43 0 0 0-14.5 8.34l-.31.28-.92.83-.4.35c-2 1.81-3.58 3.88-5.04 6.15-1.75 2.71-1.75 2.71-3.28 3.19-.77.12-1.48.15-2.15-.3-1.34-1.21-1.82-2.91-1.93-4.66-.16-3.75 1.08-7.3 2.73-10.62l.14-.3a37 37 0 0 1 7.05-9.48l.27-.27c1.49-1.49 1.49-1.49 2.35-1.58.65.04 1.04.34 1.54.73 1.43 1.04 3.16 1.17 4.87.91a6 6 0 0 0 3.59-2.5 6.4 6.4 0 0 0 .76-5 6 6 0 0 0-2.74-3.43 7 7 0 0 0-3.07-.7h-.33a5.3 5.3 0 0 0-3.89 1.63 8 8 0 0 0-1.62 3.49c-.18.7-.6 1.13-1.18 1.54l-1.4.66a35 35 0 0 0-8.31 5.47l-.2.17q-1.28 1.12-2.36 2.44c-.48.58-.93 1.03-1.7 1.13-.41-.06-.41-.06-.7-.24-.7-1.08-.57-2.63-.35-3.85.69-3.33 2.3-6.5 4.33-9.22l.16-.22c.82-1.1 1.72-2.1 2.66-3.09l.3-.3c6.83-7.02 18-9.45 27.23-6.44m51.28 12.47h2.92c.7.01.7.01.84.15q.03.45.02.9v2.52c0 .61 0 .61-.14.75l-.71.02-.44.01-.93.01c-1.1.01-1.1.01-1.97.57-.24.38-.28.66-.27 1.1v.71l.02 1.26h.26l1.55.07.39.01.35.02c.28.02.28.02.4.14l.02.84v2.61c-.02.36-.02.36-.14.48a12 12 0 0 1-1.06.01h-.85l-1.04-.01v.23l.01 13.34v1.14c-.01.25-.01.25-.13.37q-.57.03-1.14.02H80.9c-.78 0-.78 0-.92-.14a10 10 0 0 1-.01-.96v-8.42l.01-5.58h-.79l-.44.01c-.37-.01-.37-.01-.49-.13l-.02-.84v-2.6c.02-.37.02-.37.14-.49H80v-.25c-.06-2.06-.1-3.98 1.1-5.76l.22-.33a6.6 6.6 0 0 1 4.87-1.78m31.66 7.71h.43a8.5 8.5 0 0 1 6.44 2.87l.24.25c.19.34.17.58.13.97-.24.23-.24.23-.57.43l-.36.22-.38.23-.73.44-.36.2q-.37.24-.72.5c-.36.21-.53.27-.94.19-.21-.2-.21-.2-.4-.46a3.5 3.5 0 0 0-1.81-1.14c-.97-.07-1.9-.13-2.7.5-.98.86-1.14 1.94-1.23 3.18-.17 3.04-.17 3.04.98 5.77.78.72 1.48.79 2.52.77 1.05-.1 1.8-.64 2.52-1.38l.12-.25c.74.05 1.16.26 1.75.69l.48.34.24.16q.67.44 1.36.8c.23.22.23.22.3.57a2 2 0 0 1-.66 1.1l-.18.2a8.2 8.2 0 0 1-5.83 2.43h-.76a8.4 8.4 0 0 1-6.16-2.24 8 8 0 0 1-1.6-2.58l-.1-.25c-.59-1.4-.55-2.87-.54-4.36v-1.07c0-2.63.49-4.95 2.34-6.94 1.71-1.63 3.86-2.16 6.17-2.14m-55.98-7.59H65l.33.01c.76 0 .76 0 .9.14q.02.53.01 1.05v15.95l-.01 10.1-1.18.02h-.34a4 4 0 0 1-3.07-1.11c-.74-.92-.84-2.07-.83-3.2v-5.44l-.02-14.71v-1.89c0-.86.24-.92 1.07-.92m92.65-.11h3.57c.78 0 .78 0 .92.14l.02 1.04v25.22c0 .7 0 .7-.14.84-1.54.09-2.97.12-4.22-.9-.81-.77-1.05-1.83-1.1-2.92q-.02-.91-.01-1.84v-4.58l.01-7.62v-4.87l.01-1.85V37.2c.01-.82.13-.77.94-.77m-7.86 0h3.57c.78 0 .78 0 .92.14l.01 1.04v10.8l-.01 15.26-1.06.01h-.3a4.3 4.3 0 0 1-2.99-.9c-1.25-1.3-1.11-3.44-1.1-5.11v-4.52l.01-7.49v-6.61l.01-.67v-1.19c0-.82.14-.76.94-.76m-75.81 8.1h3.56c.79 0 .79 0 .92.14l.02.73v4.72l-.02 13.55-4.11.02h-.96c-.21-.02-.21-.02-.33-.14l-.02-.73V44.98c.03-.62.41-.45.94-.45m0-8.1h3.56c.79 0 .79 0 .92.14a20 20 0 0 1 .02 1.73V40c0 .61 0 .61-.14.75a32 32 0 0 1-2.2.02h-2.16c-.79 0-.79 0-.92-.14l-.02-.9V37.2c0-.83.13-.77.94-.77m27.91 7.69c2.41.02 4.51.57 6.3 2.26 1.92 2 2.24 4.27 2.24 6.92v1.8c-.02.36-.02.36-.14.48q-.55.02-1.09.01h-2.26l-8.33-.01.11.58.07.32c.2.9.55 1.5 1.25 2.1.83.52 1.58.62 2.54.61h.34a6 6 0 0 0 3.42-1.12c.27-.16.44-.26.75-.28.26.16.26.16.54.4q.88.74 1.84 1.38c.39.26.66.47.82.92a10 10 0 0 1-6.4 3.18c-2.95.2-5.74.03-8.1-1.94-1.9-1.82-2.57-4.4-2.62-6.95l-.02-1.7a10 10 0 0 1 1-4.79l.13-.24a8 8 0 0 1 4.82-3.7 10 10 0 0 1 2.55-.23zm2.36 4.8c-1.65-.94-3.5-1.02-4.95.32-.69.74-.69.74-.69 2.66h6.64c0-1.17-.2-2.1-1-2.99m33.79-4.79c1.99.01 3.82.57 5.42 1.77l.23.17c1.54 1.21 2.18 3 2.48 4.86l.06.4q.08.67.08 1.34v2.46c-.02.34-.02.34-.14.46q-.55.02-1.09.01h-2.26l-8.33-.01.12.65.06.37c.17.84.51 1.49 1.22 1.98.83.52 1.68.6 2.63.6h.34a5 5 0 0 0 3.5-1.24l.24-.15c.43.13.77.33 1.13.6l.3.2.29.22.29.2q.8.6 1.56 1.23c-.56 1.3-2.17 2.15-3.43 2.67-1.58.6-3.09.81-4.77.81h-.24c-2.41 0-4.51-.56-6.3-2.25-1.7-1.78-2.36-4.1-2.36-6.5v-.85l-.01-.86c-.01-2.6.49-4.9 2.32-6.84 1.72-1.7 3.8-2.31 6.18-2.3zm-.1 4.16a3.8 3.8 0 0 0-2.86 1.04c-.69.8-.71 1.53-.71 2.58h6.64c0-1.17.03-1.9-.78-2.74l-.2-.2c-.54-.54-1.06-.65-1.8-.67z"/></g><defs><clipPath id="a"><path fill="#fff" d="M0 20.63h159v58.75H0z"/></clipPath></defs></svg>