<svg xmlns="http://www.w3.org/2000/svg" width="159" height="47" fill="none" viewBox="0 0 159 47"><g clip-path="url(#a)"><path fill="#ff0049" d="M6.29 43.63q-.13.48-.02.97a2.2 2.2 0 0 0 1.18 1.5q.45.22.95.22h23.23A4.4 4.4 0 0 0 35.86 43l8.82-34.1q.13-.49.02-.97a2.2 2.2 0 0 0-2.13-1.72H19.34a4.4 4.4 0 0 0-4.25 3.3z"/><path fill="#005ee1" d="M.07 37.43q-.13.48-.02.97a2.2 2.2 0 0 0 1.18 1.5q.45.21.95.22H25.4a4.3 4.3 0 0 0 4.25-3.33l8.82-34.1q.13-.48.02-.97t-.41-.89-.77-.61a2 2 0 0 0-.95-.22H13.13a4.4 4.4 0 0 0-4.24 3.33z"/><path fill="#fff" d="m29.66 36.8 7.9-30.6H19.35a4.4 4.4 0 0 0-4.25 3.31l-7.9 30.6h18.2a4.4 4.4 0 0 0 4.25-3.31"/><path fill="#000" d="M19 26.53c-.83.03-2.42-.54-1.94-2.54.45-1.9 3.36-4.18 5.58-5.9l.79-.59.17-.1.12.1.5.6c1.4 1.71 3.25 3.99 2.8 5.89a3.25 3.25 0 0 1-3.12 2.54c-.73-.03-1.66-.22-2.2-1.07a4 4 0 0 1-2.7 1.07m1.98 1.98c-1.27 0-2.36.1-2.36.1l-.08-.3c1.03 0 2.9-1.76 2.9-1.76s1.05 1.75 2.08 1.75l-.22.3s-1.06-.09-2.32-.09"/><path fill="#fff" d="m154.9 6.2-.16.65h-.9l-.71 2.7h-.82l.72-2.7h-.9l.18-.64zm4.1 0-.89 3.35h-.81l.53-2-1.28 2h-.66l-.22-2.02-.53 2.02h-.82l.88-3.34h.97l.33 2.31 1.54-2.31zm-8.67.01h-30.98l-5.49 11.36-.59-11.36h-4.72l-6.11 11.44.17-11.44h-4.63l.53 17.63h5.23l5.99-11.1.36 11.1h4.95l7.49-13.88h.9l-3.62 13.88h4.53l1.15-4.44h3.62c4.63 0 6.94-3.22 7.6-6.26a7 7 0 0 0 .04-3.18h2.9l-3.6 13.88h4.5l3.62-13.88h5.14zm-18.07 6.72c-.42 1.62-1.53 2.68-3.4 2.7h-2.39l1.47-5.67h2.58c1.83.07 2.1 1.64 1.74 2.97M61.2 22.49a9 9 0 0 1-5.52 1.8q-3.8 0-5.34-2.43-1.54-2.45-.4-6.72 1.2-4.6 4.34-7.1a9.5 9.5 0 0 1 6.05-2.18q4.44 0 5.74 2.92.7 1.64.36 3.29h-3.69a4 4 0 0 0-.41-1.91Q61.62 9 59.65 9q-2 0-3.6 1.62a10 10 0 0 0-2.36 4.58q-.78 2.97.06 4.44t2.73 1.48c1.26 0 2.39-.42 3.28-1.27q.75-.68 1.48-2.04h3.65a11 11 0 0 1-3.68 4.68zM68.87 6.2h3.4l-4.63 17.6h-3.4zm9.29 15.76-.34.36q-.27.3-.6.53-.98.72-1.8.97-.81.27-1.82.27-2.9 0-3.35-2.08-.27-1.16.32-3.38l2.06-7.85h3.5l-2.07 7.85q-.3 1.11-.18 1.67.21.99 1.58.99 1.74 0 2.76-1.41.54-.76.86-2.02l1.86-7.08h3.46L80.98 23.8h-3.32l.48-1.84zm11.44 2.19q-1.62 0-2.43-.65a3.5 3.5 0 0 1-.92-1.34l-.43 1.64h-3.34l4.63-17.58h3.4l-1.65 6.26q.89-.9 1.79-1.38 1.08-.6 2.5-.6 2.58 0 3.54 1.85.97 1.86.2 4.78a11 11 0 0 1-2.76 5.03 6.2 6.2 0 0 1-4.53 2zm3.62-6.67q.36-1.38.24-2.29-.23-1.72-2.06-1.72-1.84 0-2.99 1.69-.6.9-.97 2.31a4.4 4.4 0 0 0 .02 2.77q.45 1.1 1.97 1.1 1.31 0 2.32-1.06a6.3 6.3 0 0 0 1.47-2.8"/><path fill="url(#b)" d="M60.6 29.46q-1.69-1.8-5.16-1.8-3.96.01-7.07 2.65a13.4 13.4 0 0 0-4.24 6.97q-1.14 4.34.62 6.89 1.68 2.55 5.34 2.55a8.4 8.4 0 0 0 5.79-2.22l-.17 1.76h3l2.64-10.02H53.4l-.93 3.54h3.97a6 6 0 0 1-1.88 2.23 5.2 5.2 0 0 1-3.12 1 3.4 3.4 0 0 1-2.77-1.22q-1-1.23-.2-4.3.82-3.12 2.53-4.66a5.5 5.5 0 0 1 3.7-1.52 4 4 0 0 1 1.76.36q1.27.62 1.2 2.22v.32h4.18l.04-.27a5.2 5.2 0 0 0-1.3-4.48z"/><path fill="url(#c)" d="M79.25 29.88q-1.53-2.16-5.42-2.16T67.4 29.8q-3.36 2.46-4.65 7.34c-.85 3.2-.57 5.71.8 7.43q1.54 2.16 5.43 2.16 3.87 0 6.42-2.09 3.37-2.57 4.63-7.34c.87-3.27.59-5.78-.79-7.43M69.8 43.05q-1.99 0-2.76-1.44-.81-1.48-.07-4.3.75-2.85 2.39-4.39 1.61-1.5 3.66-1.5c1.36 0 2.23.46 2.74 1.43q.8 1.5.06 4.3a9 9 0 0 1-2.37 4.39 5.2 5.2 0 0 1-3.64 1.5z"/><path fill="url(#d)" d="m84.63 42.49 3.75-14.25H84.1l-4.73 17.99h12.88l.98-3.74z"/><path fill="url(#e)" d="M111.22 30.99a4.2 4.2 0 0 0-2.51-2.33 9 9 0 0 0-2.69-.4H98.3l-4.73 17.98h7.82c2.7 0 5.03-1.13 6.91-3.35a15.3 15.3 0 0 0 3.46-8.99 6.5 6.5 0 0 0-.53-2.92m-9.66 11.87h-3.2l2.95-11.21h3.29q2.4 0 2.84 1.33.44 1.4-.25 4.06-.51 1.92-1.43 3.32-1.66 2.5-4.2 2.5"/><path fill="url(#f)" d="M104.68 41.67a4.5 4.5 0 0 1-3.1 1.22h-3.21l.12-.47q-1.86.06-3.88-.13l-1.04 3.97h7.82c2.7 0 5.03-1.13 6.9-3.35q1.17-1.38 1.97-3.1c-1.58.7-3.45 1.37-5.58 1.85" opacity=".68"/><path fill="url(#g)" d="m81.37 38.7-1.98 7.53h12.88l.98-3.73h-8.62l.61-2.31a52 52 0 0 1-3.87-1.48" opacity=".68"/><path fill="url(#h)" d="M68.99 46.73c2.55 0 4.72-.7 6.43-2.1q3-2.27 4.33-6.32a38 38 0 0 0-3.86-1.46l-.06.28a9 9 0 0 1-2.37 4.4 5.2 5.2 0 0 1-3.65 1.5c-1.36 0-2.24-.47-2.77-1.43q-.8-1.5-.07-4.32.3-1.1.73-2.02-2.22-.16-4.3-.08-.38.93-.64 1.95c-.85 3.21-.57 5.72.8 7.43q1.55 2.16 5.43 2.16" opacity=".68"/><path fill="url(#i)" d="M43.7 40.85q.1 1.95 1.06 3.33 1.67 2.55 5.33 2.56a8.3 8.3 0 0 0 5.78-2.22l-.16 1.76h3l2.63-10.04h-6.2q-.96.24-1.87.51l-.79 3.04h3.97a6 6 0 0 1-1.88 2.23q-1.37 1-3.12 1.01a3.4 3.4 0 0 1-2.77-1.23q-.81-1-.44-3.21a46 46 0 0 0-4.53 2.27z" opacity=".68"/></g><defs><linearGradient id="b" x1="41.12" x2="58.67" y1="41.38" y2="36.26" gradientUnits="userSpaceOnUse"><stop offset=".09" stop-color="#a36b1f"/><stop offset=".32" stop-color="#d0a953"/><stop offset=".46" stop-color="#e7c96d"/><stop offset=".75" stop-color="#e7c96e"/><stop offset="1" stop-color="#e7c96e"/></linearGradient><linearGradient id="c" x1="62.28" x2="83.27" y1="37.23" y2="37.23" gradientUnits="userSpaceOnUse"><stop offset=".15" stop-color="#e7c96e"/><stop offset=".59" stop-color="#e7c96e"/><stop offset=".85" stop-color="#eeecc1"/><stop offset=".97" stop-color="#e5cd6f"/></linearGradient><linearGradient id="d" x1="95.24" x2="72.11" y1="37.57" y2="36.88" gradientUnits="userSpaceOnUse"><stop stop-color="#e7c96e"/><stop offset=".31" stop-color="#e7c96e"/><stop offset=".61" stop-color="#eeecc1"/><stop offset=".97" stop-color="#eeecc1"/></linearGradient><linearGradient id="e" x1="116.16" x2="93.49" y1="41.66" y2="35.29" gradientUnits="userSpaceOnUse"><stop stop-color="#a46f27"/><stop offset=".23" stop-color="#d0aa59"/><stop offset=".37" stop-color="#e8ca73"/><stop offset=".55" stop-color="#e8ca73"/><stop offset=".72" stop-color="#e8ca73"/><stop offset="1" stop-color="#e8c86c"/></linearGradient><linearGradient id="f" x1="93.57" x2="110.26" y1="43.04" y2="43.04" gradientUnits="userSpaceOnUse"><stop offset=".08" stop-color="#a46b1c"/><stop offset=".18" stop-color="#cf962c"/><stop offset=".26" stop-color="#efb538"/><stop offset=".33" stop-color="#f1c860"/><stop offset=".39" stop-color="#f4d780"/><stop offset=".54" stop-color="#efb538"/><stop offset=".63" stop-color="#ecc061"/><stop offset=".7" stop-color="#ebc981"/><stop offset=".78" stop-color="#edbd57"/><stop offset=".85" stop-color="#efb538"/><stop offset=".92" stop-color="#ce9530"/><stop offset="1" stop-color="#b0772a"/></linearGradient><linearGradient id="g" x1="79.39" x2="93.25" y1="42.47" y2="42.47" gradientUnits="userSpaceOnUse"><stop offset=".08" stop-color="#a46b1c"/><stop offset=".18" stop-color="#cf962c"/><stop offset=".26" stop-color="#efb538"/><stop offset=".33" stop-color="#f1c860"/><stop offset=".39" stop-color="#f4d780"/><stop offset=".54" stop-color="#efb538"/><stop offset=".63" stop-color="#ecc061"/><stop offset=".7" stop-color="#ebc981"/><stop offset=".78" stop-color="#edbd57"/><stop offset=".85" stop-color="#efb538"/><stop offset=".92" stop-color="#ce9530"/><stop offset="1" stop-color="#b0772a"/></linearGradient><linearGradient id="h" x1="62.27" x2="79.75" y1="40.94" y2="40.94" gradientUnits="userSpaceOnUse"><stop offset=".08" stop-color="#a46b1c"/><stop offset=".18" stop-color="#cf962c"/><stop offset=".26" stop-color="#efb538"/><stop offset=".33" stop-color="#f1c860"/><stop offset=".39" stop-color="#f4d780"/><stop offset=".54" stop-color="#efb538"/><stop offset=".63" stop-color="#ecc061"/><stop offset=".7" stop-color="#ebc981"/><stop offset=".78" stop-color="#edbd57"/><stop offset=".85" stop-color="#efb538"/><stop offset=".92" stop-color="#ce9530"/><stop offset="1" stop-color="#b0772a"/></linearGradient><linearGradient id="i" x1="43.71" x2="61.33" y1="41.49" y2="41.49" gradientUnits="userSpaceOnUse"><stop offset=".08" stop-color="#a46b1c"/><stop offset=".18" stop-color="#cf962c"/><stop offset=".26" stop-color="#efb538"/><stop offset=".33" stop-color="#f1c860"/><stop offset=".39" stop-color="#f4d780"/><stop offset=".54" stop-color="#efb538"/><stop offset=".63" stop-color="#ecc061"/><stop offset=".7" stop-color="#ebc981"/><stop offset=".78" stop-color="#edbd57"/><stop offset=".85" stop-color="#efb538"/><stop offset=".92" stop-color="#ce9530"/><stop offset="1" stop-color="#b0772a"/></linearGradient><clipPath id="a"><path fill="#fff" d="M0 0h159v46.74H0z"/></clipPath></defs></svg>